<svg width="26" height="27" viewBox="0 0 26 27" fill="none" xmlns="http://www.w3.org/2000/svg">
<path fill-rule="evenodd" clip-rule="evenodd" d="M17.0354 24.75V16.0369H19.8521L20.2735 12.6416H17.0343V10.4738C17.0343 9.4905 17.2976 8.82 18.6561 8.82H20.3873V5.7825C19.5489 5.68985 18.7062 5.64478 17.8631 5.6475C15.3671 5.6475 13.6587 7.23038 13.6587 10.1363V12.6416H10.8333V16.0369H13.6576V24.75H3.36267C2.70184 24.75 2.16667 24.1943 2.16667 23.508V3.492C2.16667 2.80575 2.70184 2.25 3.36267 2.25H22.6373C23.2982 2.25 23.8333 2.80575 23.8333 3.492V23.508C23.8333 24.1943 23.2982 24.75 22.6373 24.75H17.0354Z" fill="#080808"/>
</svg>
